<?xml version="1.0" encoding="utf-8"?><!-- Uploaded to: SVG Repo, www.svgrepo.com, Generator: SVG Repo Mixer Tools -->
<svg fill="#000000" width="800px" height="800px" viewBox="0 0 24 24" id="black-board" data-name="Flat Color" xmlns="http://www.w3.org/2000/svg" class="icon flat-color"><path id="secondary" d="M18,22a1,1,0,0,1-1-.83l-.84-5a1,1,0,1,1,2-.34l.84,5A1,1,0,0,1,18.17,22ZM6,22H5.83A1,1,0,0,1,5,20.83l.84-5a1,1,0,0,1,2,.34l-.84,5A1,1,0,0,1,6,22Zm6-1a1,1,0,0,1-1-1V17a1,1,0,0,1,2,0v3A1,1,0,0,1,12,21ZM15.17,5a1,1,0,0,1-1-.83l-.17-1a1,1,0,1,1,2-.34l.17,1A1,1,0,0,1,15.34,5ZM8.83,5H8.66a1,1,0,0,1-.82-1.16l.17-1a1,1,0,1,1,2,.34l-.17,1A1,1,0,0,1,8.83,5Z" style="fill: rgb(44, 169, 188);"></path><rect id="primary" x="2" y="3" width="20" height="14" rx="2" style="fill: rgb(0, 0, 0);"></rect></svg>